<svg width="33" height="32" viewBox="0 0 33 32" fill="none" xmlns="http://www.w3.org/2000/svg">
<path d="M10.5627 6.41868C10.3127 6.46243 9.79394 6.63743 9.6252 6.73743C9.53769 6.78743 9.36269 6.90618 9.22519 6.99368C8.98769 7.14993 3.35645 13.7437 2.95645 14.3312C2.34395 15.2374 2.34395 16.7624 2.95645 17.6687C3.25645 18.1062 8.6502 24.4812 8.98769 24.7999C9.3127 25.0999 9.64394 25.2999 10.1002 25.4749C10.3939 25.5874 10.7627 25.5937 19.0314 25.6124C25.2752 25.6249 27.7627 25.6124 28.0314 25.5624C28.9752 25.3812 29.7689 24.7749 30.2064 23.8874L30.4689 23.3562V15.9999V8.64368L30.2064 8.11243C29.7752 7.24993 28.9939 6.63743 28.0752 6.44368C27.8439 6.39368 25.2377 6.37493 19.2314 6.38118C14.5502 6.38743 10.6502 6.40618 10.5627 6.41868ZM15.8564 11.8124C15.9502 11.8499 16.6564 12.5062 17.4189 13.2687L18.8127 14.6562L20.2314 13.2374C21.4439 12.0312 21.6939 11.8187 21.8877 11.7812C22.3627 11.6937 22.7939 11.9437 22.9689 12.3999C23.1814 12.9499 23.1502 12.9937 21.5752 14.5749L20.1627 15.9999L21.5752 17.4187C22.8752 18.7312 22.9939 18.8624 23.0314 19.1124C23.1314 19.7249 22.5377 20.3187 21.9252 20.2187C21.6814 20.1749 21.5377 20.0562 20.2314 18.7624L18.8127 17.3499L17.3877 18.7624C16.1689 19.9749 15.9377 20.1812 15.7314 20.2187C15.4627 20.2687 15.0189 20.1312 14.8564 19.9499C14.6627 19.7374 14.5502 19.3749 14.5939 19.0999C14.6377 18.8687 14.7752 18.7062 16.0502 17.4187L17.4627 15.9999L16.0814 14.6062C14.6439 13.1624 14.5064 12.9687 14.5939 12.5749C14.6564 12.2624 14.8689 11.9937 15.1439 11.8749C15.4439 11.7374 15.6064 11.7249 15.8564 11.8124Z" fill="#FCFDFC"/>
</svg>
