<svg width="10" height="16" viewBox="0 0 10 16" fill="none" xmlns="http://www.w3.org/2000/svg">
<path d="M4.87145 0.0669241C4.72464 0.145013 4.60282 0.288696 4.56222 0.435503C4.5466 0.497974 4.53098 0.819699 4.53098 1.14767C4.53098 1.74115 4.53098 1.74739 4.46226 1.76613C4.42166 1.77551 4.34669 1.78488 4.29359 1.78488C4.13429 1.78488 3.5783 1.90669 3.25345 2.00977C2.91611 2.11597 2.43508 2.34399 2.16645 2.52828C1.91032 2.7032 1.53237 3.06241 1.34496 3.30917C0.632792 4.26185 0.517221 5.59561 1.0576 6.64199C1.17317 6.86377 1.26687 6.98246 1.50114 7.21985C2.06338 7.79146 2.73182 8.12568 4.1093 8.52862L4.51536 8.65044L4.52473 10.6526L4.53098 12.6579L4.41541 12.6361C3.52207 12.4799 2.75993 12.1457 2.03839 11.5959C1.87909 11.4741 1.69792 11.3617 1.63233 11.3429C1.11694 11.1993 0.598433 11.5585 0.54221 12.0988C0.50785 12.4331 0.629669 12.6642 0.995124 12.9547C1.93844 13.7106 3.07853 14.1666 4.27173 14.2666L4.52473 14.2853L4.53723 14.9163C4.5466 15.4973 4.55285 15.5535 4.61844 15.6753C4.79648 16.0126 5.33061 16.1126 5.61485 15.8627C5.82101 15.6815 5.84287 15.5941 5.84287 14.885V14.2572L6.10213 14.2353C7.41089 14.126 8.55723 13.5169 9.14446 12.6142C9.70045 11.7615 9.866 10.5371 9.55365 9.56251C9.18507 8.4068 8.16679 7.64778 6.24893 7.10428L5.84287 6.98871V5.23015C5.84287 4.26185 5.85224 3.47159 5.86786 3.47159C5.93658 3.47159 6.42073 3.60278 6.62376 3.67775C6.9611 3.79644 7.40465 4.02758 7.75761 4.26185C8.08246 4.4805 8.22926 4.52735 8.47602 4.48987C9.03201 4.39929 9.37248 3.79019 9.14134 3.29667C9.057 3.11551 8.91332 2.98432 8.48227 2.69383C7.77322 2.21905 6.90488 1.90357 6.09276 1.82236L5.85849 1.80049L5.84287 1.12893C5.82413 0.429255 5.80851 0.338673 5.67732 0.198113C5.49616 0.00445366 5.10884 -0.0580177 4.87145 0.0669241ZM4.53098 5.03024V6.65137L4.30609 6.57952C3.47834 6.31715 3.01918 6.05477 2.80991 5.72679C2.47569 5.19891 2.60375 4.44926 3.10664 3.97761C3.43774 3.6715 3.99685 3.43411 4.44665 3.41225L4.53098 3.40912V5.03024ZM6.25206 9.17519C7.03919 9.44694 7.48586 9.76867 7.68889 10.1997C7.86381 10.5714 7.87318 10.9837 7.72012 11.4179C7.5046 12.0301 6.82679 12.5236 6.02404 12.6486L5.84287 12.6767V10.8682C5.84287 9.34074 5.84912 9.06274 5.8866 9.06274C5.91159 9.06274 6.07401 9.11272 6.25206 9.17519Z" fill="#FCFDFC"/>
</svg>
