<svg width="19" height="18" viewBox="0 0 19 18" fill="none" xmlns="http://www.w3.org/2000/svg">
<path d="M8.36678 0.0395889C7.38996 0.132217 6.27841 0.44379 5.37739 0.877462C4.4511 1.32376 3.75217 1.80375 3.0364 2.49005C2.25326 3.23108 1.69328 3.99738 1.19224 5.00367C-0.496139 8.38884 0.122792 12.4687 2.74167 15.2139C5.41107 18.0223 9.64674 18.8012 13.1245 17.1212C14.0508 16.6749 14.7498 16.1949 15.4655 15.5086C16.2487 14.7676 16.8087 14.0013 17.3097 12.995C19.3307 8.94461 18.0002 3.99738 14.2235 1.49218C12.5225 0.368002 10.4215 -0.154089 8.36678 0.0395889ZM9.55832 3.69002C9.70569 3.74475 9.95831 3.97633 10.0425 4.13211C10.1057 4.25 10.1183 4.49 10.1352 6.32152L10.1562 8.38042L11.3141 8.76777C12.4214 9.13829 12.4761 9.16355 12.6235 9.32776C12.914 9.65617 12.9393 10.0688 12.6867 10.4014C12.5225 10.6204 12.2446 10.7677 11.9877 10.7677C11.7688 10.7677 9.01097 9.86669 8.76677 9.71512C8.68677 9.66459 8.56467 9.53407 8.50151 9.42881L8.38783 9.23092L8.3752 6.83941C8.36678 5.2184 8.37941 4.39737 8.40888 4.27948C8.46362 4.08159 8.68677 3.81633 8.88466 3.71949C9.03623 3.64791 9.39833 3.63107 9.55832 3.69002Z" fill="#777E91"/>
</svg>
