<svg width="19" height="20" viewBox="0 0 19 20" fill="none" xmlns="http://www.w3.org/2000/svg">
<path d="M3.41666 12.5001H2.58333C2.1413 12.5001 1.71738 12.3245 1.40482 12.0119C1.09226 11.6994 0.916664 11.2754 0.916664 10.8334V3.33341C0.916664 2.89139 1.09226 2.46746 1.40482 2.1549C1.71738 1.84234 2.1413 1.66675 2.58333 1.66675H10.0833C10.5254 1.66675 10.9493 1.84234 11.2618 2.1549C11.5744 2.46746 11.75 2.89139 11.75 3.33341V4.16675M8.41666 7.50008H15.9167C16.8371 7.50008 17.5833 8.24627 17.5833 9.16675V16.6667C17.5833 17.5872 16.8371 18.3334 15.9167 18.3334H8.41666C7.49619 18.3334 6.75 17.5872 6.75 16.6667V9.16675C6.75 8.24627 7.49619 7.50008 8.41666 7.50008Z" stroke="#FCFDFC" stroke-width="1.5" stroke-linecap="round" stroke-linejoin="round"/>
</svg>
