<?xml version="1.0" standalone="no"?>
<svg width="128" height="128" viewBox="0 0 13333.33 13333.33" style="shape-rendering:geometricPrecision; text-rendering:geometricPrecision; image-rendering:optimizeQuality; fill-rule:evenodd; clip-rule:evenodd" version="1.1" xml:space="preserve" xmlns="http://www.w3.org/2000/svg" xmlns:xlink="http://www.w3.org/1999/xlink" xmlns:xodm="http://www.corel.com/coreldraw/odm/2003">

<defs id="element_3d282532">

<style type="text/css" id="element_47dcb4f7">
   
    .fil0 {fill:none}
    .fil1 {fill:#03A9F4}
    .fil2 {fill:#4FC3F7}
    .fil3 {fill:#FFFF66}
   
  </style>

</defs>

<g id="Layer_x0020_1">

<rect class="fil0" height="13333.33" width="13333.33" x="-0" y="-0.01" id="element_2673b8c4"/>

<g id="_582368189760">

<path class="fil1" d="M10413.42 7725.72c381.53,211.49 622.02,612.41 622.02,1059.05 0,507.21 -310.12,955.46 -784.76,1134.28l-2923.29 1101.38c-434.92,163.86 -886.53,163.86 -1321.44,0l-2923.29 -1101.38c-474.64,-178.83 -784.76,-627.07 -784.76,-1134.28 0,-446.64 240.48,-847.56 622.01,-1059.05 -381.53,-211.49 -622.01,-612.41 -622.01,-1059.05 0,-446.64 240.48,-847.56 622.01,-1059.06 -381.53,-211.49 -622.01,-612.41 -622.01,-1059.05 0,-507.21 310.12,-955.46 784.76,-1134.28l2923.29 -1101.38c434.92,-163.86 886.53,-163.86 1321.44,0l2923.29 1101.38c474.64,178.83 784.76,627.07 784.76,1134.28 0,446.64 -240.48,847.56 -622.02,1059.05 381.54,211.49 622.02,612.41 622.02,1059.06 0,446.64 -240.48,847.56 -622.02,1059.05z" id="element_99dd7e2c"/>

<path class="fil2" d="M7016.71 3137.48l2923.29 1101.39c131.45,49.52 214.27,169.23 214.27,309.7 0,140.47 -82.82,260.17 -214.27,309.7l-2923.29 1101.38c-234.76,88.45 -465.33,88.45 -700.1,0l-2923.29 -1101.38c-131.45,-49.53 -214.26,-169.23 -214.26,-309.7 0,-140.47 82.81,-260.17 214.26,-309.7l2923.29 -1101.39c234.76,-88.45 465.33,-88.45 700.1,0z" id="element_c6ae349a"/>

<path class="fil3" d="M9124.43 6049.69l815.57 307.28c131.45,49.53 214.27,169.23 214.27,309.7 0,140.47 -82.82,260.17 -214.27,309.7l-2923.29 1101.38c-234.76,88.45 -465.33,88.45 -700.1,0l-2923.29 -1101.38c-131.45,-49.53 -214.26,-169.23 -214.26,-309.7 0,-140.47 82.81,-260.17 214.26,-309.7l815.57 -307.28 1816.01 684.2c422.69,159.26 860.83,159.26 1283.52,0l1816.01 -684.2z" id="element_deb7e81b"/>

<path class="fil3" d="M9124.43 8167.8l815.57 307.28c131.45,49.52 214.27,169.23 214.27,309.7 0,140.47 -82.82,260.17 -214.27,309.7l-2923.29 1101.39c-234.76,88.45 -465.33,88.45 -700.1,0l-2923.29 -1101.39c-131.45,-49.52 -214.26,-169.23 -214.26,-309.7 0,-140.47 82.81,-260.17 214.26,-309.7l815.57 -307.28 1816.01 684.2c422.69,159.26 860.83,159.26 1283.52,0l1816.01 -684.2z" id="element_7ce46d25"/>

</g>

</g>

</svg>