<svg width="15" height="14" viewBox="0 0 15 14" fill="none" xmlns="http://www.w3.org/2000/svg">
<path d="M7.07037 0.386976C6.5453 0.523107 6.15358 0.778698 5.85353 1.1732C5.7174 1.35378 0.897278 10.0745 0.691694 10.5134C0.558342 10.7968 0.5 11.0802 0.5 11.4441C0.5 11.8497 0.56112 12.1109 0.741701 12.472C0.852828 12.697 0.913947 12.7748 1.15287 13.0138C1.39179 13.2527 1.46958 13.3138 1.69461 13.4249C1.83908 13.4972 2.05855 13.5805 2.17801 13.6111C2.39471 13.6666 2.50584 13.6666 7.61211 13.6666C12.7184 13.6666 12.8295 13.6666 13.0462 13.6111C13.1657 13.5805 13.3852 13.4972 13.5296 13.4249C13.7546 13.3138 13.8324 13.2527 14.0714 13.0138C14.3103 12.7748 14.3714 12.697 14.4825 12.472C14.6631 12.1109 14.7242 11.8497 14.7242 11.4441C14.7242 11.0802 14.6659 10.7968 14.5325 10.5134C14.3297 10.0772 9.50683 1.35378 9.3707 1.1732C9.28735 1.06485 9.14289 0.909272 9.04843 0.831483C8.83451 0.65368 8.38445 0.434205 8.12052 0.375863C7.8427 0.314744 7.32318 0.3203 7.07037 0.386976ZM7.94827 1.51491C8.12608 1.57048 8.30388 1.68994 8.4289 1.8344C8.57892 2.00665 13.5185 10.9996 13.5602 11.1746C13.5768 11.2496 13.5852 11.4052 13.5796 11.5247C13.563 11.7997 13.4713 12.0081 13.274 12.2025C13.0934 12.3859 12.8823 12.4915 12.6267 12.5276C12.5045 12.5442 10.6764 12.5554 7.61211 12.5554C4.54779 12.5554 2.71976 12.5442 2.59752 12.5276C2.34193 12.4915 2.13079 12.3859 1.9502 12.2025C1.7474 12.0025 1.6585 11.7997 1.64461 11.5052C1.63627 11.3691 1.64738 11.2274 1.66683 11.1552C1.68628 11.0857 2.82255 8.99097 4.19497 6.49339C6.03967 3.13459 6.7231 1.91775 6.82034 1.81218C7.09538 1.50102 7.5371 1.38712 7.94827 1.51491Z" fill="#FF6838"/>
<path d="M7.31477 4.29297C7.24809 4.33187 7.16475 4.41521 7.12585 4.48189L7.0564 4.60135V6.44327V8.2852L7.12585 8.40466C7.32866 8.75193 7.87318 8.76027 8.0871 8.42133L8.16766 8.29354V6.44605V4.60135L8.09821 4.48189C7.99542 4.30686 7.83428 4.22074 7.60925 4.22074C7.46757 4.22074 7.40645 4.23463 7.31477 4.29297Z" fill="#FF6838"/>
<path d="M7.31477 9.84939C7.14252 9.95218 7.0564 10.1133 7.0564 10.3328C7.0564 10.6662 7.27309 10.8884 7.59814 10.8884C7.94819 10.8884 8.16766 10.6773 8.16766 10.3356C8.16766 10.1105 8.08154 9.94941 7.90652 9.84661C7.73705 9.74938 7.48146 9.74938 7.31477 9.84939Z" fill="#FF6838"/>
</svg>
