<svg width="14" height="14" viewBox="0 0 14 14" fill="none" xmlns="http://www.w3.org/2000/svg">
<g clip-path="url(#clip0_245_2291)">
<path d="M10.4652 10.4649C9.46801 11.225 8.25381 11.6461 7.00016 11.6666C2.91683 11.6666 0.583496 6.99992 0.583496 6.99992C1.3091 5.64769 2.31549 4.46627 3.53516 3.53492M5.77516 2.47325C6.17669 2.37926 6.58778 2.33228 7.00016 2.33325C11.0835 2.33325 13.4168 6.99992 13.4168 6.99992C13.0627 7.66236 12.6404 8.28601 12.1568 8.86075M8.23683 8.23659C8.07662 8.40852 7.88342 8.54643 7.66875 8.64207C7.45409 8.73772 7.22236 8.78915 6.98738 8.7933C6.75241 8.79745 6.51901 8.75422 6.3011 8.66621C6.0832 8.57819 5.88525 8.44719 5.71907 8.28101C5.5529 8.11483 5.42189 7.91689 5.33388 7.69898C5.24586 7.48107 5.20264 7.24767 5.20678 7.0127C5.21093 6.77773 5.26236 6.546 5.35801 6.33133C5.45366 6.11666 5.59156 5.92346 5.7635 5.76325M0.583496 0.583252L13.4168 13.4166" stroke="#FF6838" stroke-linecap="round" stroke-linejoin="round"/>
</g>
<defs>
<clipPath id="clip0_245_2291">
<rect width="14" height="14" fill="white"/>
</clipPath>
</defs>
</svg>
