<?xml version="1.0" standalone="no"?>
<svg xmlns:xlink="http://www.w3.org/1999/xlink" fill="#000000" width="128" height="128" viewBox="0 0 24 24" xmlns="http://www.w3.org/2000/svg">

<g data-name="Layer 2" style="fill: rgb(255, 255, 255);">

<g data-name="options-2" style="fill: rgb(255, 255, 255);">

<rect width="24" height="24" transform="rotate(90 12 12)" opacity="0" style="fill: rgb(255, 255, 255);"/>

<path d="M19 9a3 3 0 0 0-2.82 2H3a1 1 0 0 0 0 2h13.18A3 3 0 1 0 19 9zm0 4a1 1 0 1 1 1-1 1 1 0 0 1-1 1z" style="fill: rgb(255, 255, 255);"/>

<path d="M3 7h1.18a3 3 0 0 0 5.64 0H21a1 1 0 0 0 0-2H9.82a3 3 0 0 0-5.64 0H3a1 1 0 0 0 0 2zm4-2a1 1 0 1 1-1 1 1 1 0 0 1 1-1z" style="fill: rgb(255, 255, 255);"/>

<path d="M21 17h-7.18a3 3 0 0 0-5.64 0H3a1 1 0 0 0 0 2h5.18a3 3 0 0 0 5.64 0H21a1 1 0 0 0 0-2zm-10 2a1 1 0 1 1 1-1 1 1 0 0 1-1 1z" style="fill: rgb(255, 255, 255);"/>

</g>

</g>

</svg>