<svg width="12" height="12" viewBox="0 0 12 12" fill="none" xmlns="http://www.w3.org/2000/svg">
<g clip-path="url(#clip0_239_1114)">
<path d="M11 6C11 8.76142 8.76142 11 6 11M11 6C11 3.23858 8.76142 1 6 1M11 6H1M6 11C3.23858 11 1 8.76142 1 6M6 11C7.25064 9.63082 7.96138 7.85398 8 6C7.96138 4.14602 7.25064 2.36918 6 1M6 11C4.74936 9.63082 4.03862 7.85398 4 6C4.03862 4.14602 4.74936 2.36918 6 1M1 6C1 3.23858 3.23858 1 6 1" stroke="#FCFDFC" stroke-linecap="round" stroke-linejoin="round"/>
</g>
<defs>
<clipPath id="clip0_239_1114">
<rect width="12" height="12" fill="white"/>
</clipPath>
</defs>
</svg>
