<svg width="18" height="18" viewBox="0 0 18 18" fill="none" xmlns="http://www.w3.org/2000/svg">
<path d="M1.77583 0.0701818C1.34684 0.186222 1.03388 0.369073 0.703342 0.703128C0.460713 0.942241 0.372804 1.0618 0.253247 1.30091C-0.00344742 1.82485 -0.00344743 1.81782 0.00710166 4.07532L0.0176508 6.07614L0.123142 6.22734C0.277862 6.44887 0.509942 6.55788 0.822899 6.55436C1.10069 6.55436 1.28354 6.48052 1.44881 6.3047C1.63518 6.10778 1.63518 6.1324 1.65276 4.09642L1.67034 2.19758L1.7688 2.03231C1.8321 1.92331 1.92352 1.83188 2.03253 1.76859L2.1978 1.67013L4.09663 1.65255C6.13261 1.63496 6.108 1.63496 6.30491 1.4486C6.48073 1.28333 6.55457 1.10048 6.55457 0.822684C6.55809 0.509728 6.44908 0.277647 6.22755 0.122928L6.07635 0.0174365L4.05092 0.0104036C2.15912 0.00337124 2.0044 0.00688744 1.77583 0.0701818Z" fill="#FCFDFC"/>
<path d="M11.8537 0.0772147C11.3825 0.309295 11.2946 1.06883 11.699 1.4486C11.8959 1.63496 11.8713 1.63496 13.9073 1.65255L15.8061 1.67013L15.9714 1.76859C16.0804 1.83188 16.1718 1.92331 16.2351 2.03231L16.3336 2.19758L16.3512 4.09642C16.3688 6.1324 16.3688 6.10778 16.5551 6.3047C16.7204 6.48052 16.9032 6.55436 17.181 6.55436C17.494 6.55788 17.7261 6.44887 17.8808 6.22734L17.9863 6.07614L17.9968 4.08587C18.0074 1.8354 18.0074 1.83891 17.7472 1.30091C17.5432 0.878946 17.1248 0.460499 16.7028 0.256549C16.1718 -0.000145435 16.1859 -0.000145435 13.9741 -0.000145435C12.0331 -0.000145435 12.0049 -0.000145435 11.8537 0.0772147Z" fill="#FCFDFC"/>
<path d="M3.70981 3.33717C3.63245 3.37233 3.52696 3.44617 3.47422 3.50244C3.26675 3.72397 3.27027 3.69584 3.27027 5.73885C3.27027 7.47593 3.2773 7.62362 3.33708 7.75372C3.41795 7.93306 3.61487 8.10888 3.78717 8.15459C3.98761 8.21085 7.48991 8.20733 7.67979 8.15107C7.86616 8.09481 8.10527 7.8557 8.1545 7.67988C8.20725 7.49351 8.20725 3.97011 8.1545 3.78726C8.10879 3.61496 7.93297 3.41804 7.75363 3.33717C7.62353 3.27739 7.47584 3.27036 5.73172 3.27036C3.97354 3.27036 3.83992 3.27739 3.70981 3.33717ZM6.54049 5.73181V6.54058H5.73172H4.92296V5.73181V4.92305H5.73172H6.54049V5.73181Z" fill="#FCFDFC"/>
<path d="M10.2502 3.33717C10.0709 3.41804 9.89509 3.61496 9.84938 3.78726C9.79312 3.9877 9.79663 7.49 9.85289 7.67988C9.90916 7.86625 10.1377 8.09481 10.3241 8.15107C10.514 8.20733 14.0163 8.21085 14.2167 8.15459C14.389 8.10888 14.5859 7.93306 14.6668 7.75372C14.7266 7.62362 14.7336 7.47593 14.7336 5.73885C14.7336 3.69584 14.7371 3.72397 14.5297 3.50244C14.4769 3.44617 14.3714 3.37233 14.2941 3.33717C14.164 3.27739 14.0303 3.27036 12.2722 3.27036C10.528 3.27036 10.3803 3.27739 10.2502 3.33717ZM13.0809 5.73181V6.54058H12.2722H11.4634V5.73181V4.92305H12.2722H13.0809V5.73181Z" fill="#FCFDFC"/>
<path d="M3.74849 9.85971C3.57619 9.92301 3.41795 10.0707 3.33707 10.25C3.2773 10.3801 3.27026 10.5138 3.27026 12.2719C3.27026 14.0301 3.2773 14.1637 3.33707 14.2938C3.37224 14.3712 3.44608 14.4767 3.50234 14.5294C3.72387 14.7369 3.69574 14.7334 5.73875 14.7334C7.47584 14.7334 7.62352 14.7264 7.75363 14.6666C7.93296 14.5857 8.10878 14.3853 8.15801 14.2059C8.18263 14.1145 8.19318 13.4499 8.18614 12.1911L8.17559 10.3168L8.07714 10.1692C8.02439 10.0883 7.91538 9.97927 7.83451 9.92652L7.68682 9.82806L5.78798 9.82103C4.23375 9.814 3.86101 9.82103 3.74849 9.85971ZM6.54048 12.2719V13.0807H5.73172H4.92296V12.2719V11.4632H5.73172H6.54048V12.2719Z" fill="#FCFDFC"/>
<path d="M10.31 9.84924C10.1483 9.89847 9.90566 10.1481 9.85291 10.324C9.7861 10.549 9.79665 11.6391 9.86698 11.8079C9.99357 12.1173 10.2608 12.2791 10.6371 12.2791C11.0133 12.2791 11.2806 12.1173 11.4071 11.8079C11.4951 11.6039 11.4845 10.4435 11.3966 10.2501C11.3157 10.0708 11.1188 9.89496 10.9465 9.84924C10.7847 9.80353 10.4683 9.80353 10.31 9.84924Z" fill="#FCFDFC"/>
<path d="M12.7504 9.86343C12.4445 9.97244 12.2722 10.2467 12.2722 10.637C12.2722 10.9183 12.346 11.1082 12.5043 11.2594C12.6977 11.4423 12.8102 11.4634 13.5099 11.4634C14.062 11.4634 14.1745 11.4528 14.2941 11.3966C14.4664 11.3157 14.6071 11.1715 14.6774 10.9992C14.7547 10.8164 14.7477 10.4296 14.6668 10.2502C14.586 10.0709 14.389 9.89508 14.2167 9.84937C14.0163 9.79311 12.9192 9.80365 12.7504 9.86343Z" fill="#FCFDFC"/>
<path d="M0.555586 11.4739C0.337571 11.5372 0.165269 11.6743 0.0738437 11.8607C0 12.0084 0 12.0541 0 13.9811C0 16.1893 0 16.1858 0.253178 16.7027C0.46416 17.1247 0.879091 17.5431 1.30106 17.7471C1.83906 18.0073 1.83554 18.0073 4.08602 17.9968L6.07628 17.9862L6.22748 17.8807C6.44901 17.726 6.55802 17.4939 6.55451 17.181C6.55451 16.9032 6.48066 16.7203 6.30484 16.5551C6.10793 16.3687 6.13254 16.3687 4.09657 16.3511L2.19773 16.3335L2.03246 16.2351C1.92345 16.1718 1.83203 16.0803 1.76873 15.9713L1.67027 15.8061L1.65269 13.9072C1.63863 12.4479 1.62456 11.9838 1.5894 11.9029C1.43468 11.5513 0.970517 11.3579 0.555586 11.4739Z" fill="#FCFDFC"/>
<path d="M16.9665 11.4598C16.7203 11.5231 16.5058 11.6989 16.4144 11.9029C16.3792 11.9838 16.3652 12.4479 16.3511 13.9072L16.3335 15.8061L16.2351 15.9713C16.1718 16.0803 16.0804 16.1718 15.9713 16.2351L15.8061 16.3335L13.9072 16.3511C11.8713 16.3687 11.8959 16.3687 11.699 16.5551C11.5231 16.7203 11.4493 16.9032 11.4493 17.181C11.4458 17.4939 11.5548 17.726 11.7763 17.8807L11.9275 17.9862L13.9178 17.9968C16.1683 18.0073 16.1647 18.0073 16.7028 17.7471C17.1247 17.5431 17.5432 17.1247 17.7471 16.7027C18.0073 16.1647 18.0073 16.1682 17.9968 13.9178L17.9862 11.9275L17.8807 11.7763C17.821 11.6884 17.7084 11.5899 17.617 11.5442C17.4447 11.4563 17.1317 11.4141 16.9665 11.4598Z" fill="#FCFDFC"/>
<path d="M11.1751 13.116C10.9922 13.1722 10.8305 13.2988 10.732 13.4606C10.6511 13.6047 10.6371 13.6645 10.6371 13.9072C10.6371 14.2482 10.7285 14.4416 10.9641 14.6104L11.1188 14.7159L12.5992 14.7265C13.6084 14.7335 14.1253 14.7265 14.2167 14.6983C14.389 14.6491 14.5894 14.4698 14.6668 14.294C14.7547 14.1041 14.7547 13.7102 14.6668 13.5204C14.5824 13.3375 14.4347 13.2004 14.2448 13.1336C14.1147 13.0878 13.8651 13.0808 12.6801 13.0843C11.9065 13.0843 11.2278 13.0984 11.1751 13.116Z" fill="#FCFDFC"/>
</svg>
