<svg width="16" height="16" viewBox="0 0 16 16" fill="none" xmlns="http://www.w3.org/2000/svg">
<path d="M2.3342 9.37813C1.22383 11.0981 1.99238 13.3951 3.91049 14.0939C4.85974 14.4423 5.89391 14.3182 6.74955 13.7543C7.10226 13.5235 7.51592 13.0924 7.72929 12.731C7.8904 12.4567 8.06022 12.0082 8.12118 11.6816C8.1865 11.3463 8.17997 10.8347 8.10376 10.4711C8.03627 10.1554 7.87951 9.72866 7.76848 9.56537L7.71187 9.48263L9.16841 8.02609L10.625 6.56955L11.1888 7.13344C11.7484 7.69298 11.7549 7.69951 11.8355 7.68427C11.903 7.67338 11.9922 7.59718 12.3275 7.26189C12.5496 7.03982 12.7499 6.8221 12.7673 6.77856C12.8043 6.70236 12.8022 6.70018 12.5561 6.45416C12.21 6.10798 12.21 6.11669 12.5409 5.78576C12.8762 5.45047 12.8588 5.45047 13.1832 5.77487C13.5119 6.10363 13.4814 6.10798 13.9561 5.63335C14.2478 5.34161 14.3197 5.2567 14.3305 5.18921C14.3458 5.10865 14.3392 5.10212 13.7841 4.54693L13.2223 3.98522L13.3726 3.81322C13.6295 3.52147 13.6621 3.17965 13.464 2.87702C13.2898 2.61141 12.9241 2.48078 12.5975 2.56351L12.432 2.60705L9.52547 5.50054L6.6211 8.39621L6.45998 8.30477C6.19219 8.15454 5.66966 7.99343 5.31913 7.95642C4.68122 7.88457 3.91267 8.05222 3.37272 8.37444C3.02872 8.58345 2.54756 9.04719 2.3342 9.37813ZM4.0999 9.74607C4.65727 9.38031 5.44977 9.40643 5.981 9.80704C6.75608 10.3949 6.83881 11.5749 6.15082 12.2629C5.637 12.7767 4.80532 12.8812 4.15869 12.5133C3.99758 12.4218 3.68406 12.1083 3.59262 11.9472C3.29652 11.4247 3.30305 10.7519 3.60786 10.2512C3.71672 10.0727 3.92137 9.86364 4.0999 9.74607Z" fill="#FF6838"/>
</svg>
