<?xml version="1.0" standalone="no"?>
<svg xmlns:xlink="http://www.w3.org/1999/xlink" fill="#000000" width="128" height="128" viewBox="0 0 24 24" xmlns="http://www.w3.org/2000/svg">

<g data-name="Layer 2" style="fill: rgb(178, 59, 241);">

<g data-name="external-link" style="fill: rgb(178, 59, 241);">

<rect width="24" height="24" opacity="0" style="fill: rgb(178, 59, 241);"/>

<path d="M20 11a1 1 0 0 0-1 1v6a1 1 0 0 1-1 1H6a1 1 0 0 1-1-1V6a1 1 0 0 1 1-1h6a1 1 0 0 0 0-2H6a3 3 0 0 0-3 3v12a3 3 0 0 0 3 3h12a3 3 0 0 0 3-3v-6a1 1 0 0 0-1-1z" style="fill: rgb(178, 59, 241);"/>

<path d="M16 5h1.58l-6.29 6.28a1 1 0 0 0 0 1.42 1 1 0 0 0 1.42 0L19 6.42V8a1 1 0 0 0 1 1 1 1 0 0 0 1-1V4a1 1 0 0 0-1-1h-4a1 1 0 0 0 0 2z" style="fill: rgb(178, 59, 241);"/>

</g>

</g>

</svg>