<!DOCTYPE svg PUBLIC "-//W3C//DTD SVG 1.1//EN" "http://www.w3.org/Graphics/SVG/1.1/DTD/svg11.dtd">
<!-- Uploaded to: SVG Repo, www.svgrepo.com, Transformed by: SVG Repo Mixer Tools -->
<svg fill="#777E90" height="256px" width="256px" version="1.1" id="Layer_1" xmlns="http://www.w3.org/2000/svg" xmlns:xlink="http://www.w3.org/1999/xlink" viewBox="0 0 512 512" xml:space="preserve" stroke="#777E90" stroke-width="0.00512">
<g id="SVGRepo_bgCarrier" stroke-width="0"/>
<g id="SVGRepo_tracerCarrier" stroke-linecap="round" stroke-linejoin="round" stroke="#CCCCCC" stroke-width="20.48"/>
<g id="SVGRepo_iconCarrier"> <g> <g> <g> <path d="M256.011,64c-70.613,0-128,57.387-128,128c0,70.592,57.408,128,128,128s128-57.408,128-128 C384.011,121.387,326.603,64,256.011,64z"/> <path d="M447.2,497.259l-73.749-179.093c0.981-2.283,2.027-4.288,3.221-5.483c2.88-2.859,9.643-4.907,16.192-6.891 c10.88-3.285,23.232-7.019,29.44-17.771c6.123-10.581,3.221-23.04,0.683-34.027c-1.557-6.741-3.179-13.739-2.091-17.792 c0.981-3.733,5.931-9.003,10.304-13.653c7.872-8.384,16.789-17.877,16.789-30.549s-8.917-22.165-16.789-30.549 c-4.373-4.651-9.344-9.92-10.304-13.632c-1.109-4.075,0.512-11.072,2.091-17.813c2.539-10.987,5.44-23.445-0.683-34.048 c-6.208-10.731-18.539-14.464-29.44-17.749c-6.549-1.984-13.291-4.011-16.171-6.891s-4.907-9.643-6.891-16.171 c-3.285-10.88-7.019-23.232-17.749-29.419c-9.003-5.205-22.144-3.477-34.069-0.704c-7.04,1.643-14.059,3.072-17.792,2.091 c-3.733-1.003-9.003-5.952-13.653-10.325C278.176,8.896,268.683,0,256.011,0c-12.651,0-22.144,8.917-30.528,16.789 c-4.672,4.373-9.941,9.323-13.675,10.325c-3.733,0.96-10.752-0.448-17.792-2.112c-11.947-2.773-25.045-4.501-34.069,0.704 c-10.709,6.187-14.443,18.517-17.728,29.44c-1.984,6.549-4.032,13.291-6.891,16.171c-2.88,2.859-9.643,4.907-16.192,6.891 c-10.88,3.285-23.232,7.019-29.44,17.771c-6.123,10.581-3.221,23.04-0.683,34.027c1.557,6.741,3.157,13.739,2.091,17.792 c-0.981,3.733-5.931,9.003-10.325,13.653c-7.872,8.384-16.768,17.877-16.768,30.549c0,12.651,8.917,22.165,16.789,30.549 c4.373,4.651,9.344,9.92,10.304,13.632c1.109,4.075-0.512,11.072-2.091,17.813c-2.539,10.987-5.44,23.445,0.683,34.048 c6.208,10.731,18.539,14.464,29.44,17.749c6.549,1.984,13.291,4.011,16.171,6.891c1.216,1.216,2.261,3.221,3.243,5.525 L64.8,497.28c-1.707,4.117-0.661,8.853,2.581,11.883c2.027,1.877,4.629,2.837,7.296,2.837c1.621,0,3.243-0.363,4.779-1.131 l79.787-39.893l58.859,39.232c2.709,1.792,6.101,2.24,9.195,1.28c3.115-1.003,5.589-3.371,6.699-6.4l23.317-62.144l20.587,61.76 c1.067,3.157,3.52,5.632,6.677,6.72c3.136,1.067,6.613,0.64,9.365-1.216l58.859-39.232l79.787,39.893 c1.515,0.789,3.136,1.131,4.757,1.131c2.645,0,5.248-0.981,7.275-2.859C447.861,506.112,448.907,501.376,447.2,497.259z M349.344,322.688c-2.155,7.104-4.587,15.168-8,17.152c-2.88,1.643-10.688,0.171-18.539-1.643 c-9.408-2.197-19.861-4.117-28.117-1.92c-8.917,2.389-15.957,8.981-22.763,15.381c-5.483,5.141-11.712,11.008-15.915,11.008 s-10.432-5.845-15.936-11.008c-6.784-6.379-13.824-12.992-22.741-15.381c-2.688-0.725-5.547-1.067-8.683-1.067 c-6.549,0-13.077,1.515-19.413,2.987c-7.851,1.813-15.68,3.264-18.56,1.6c-3.435-1.984-5.867-10.027-8.021-17.131 c-2.731-9.067-5.568-18.432-12.224-25.088c-6.677-6.656-16.043-9.493-25.109-12.245c-7.104-2.155-15.147-4.565-17.152-8 c-1.899-3.307,0.064-11.755,1.643-18.56c2.155-9.301,4.373-18.901,1.92-28.139c-2.389-8.896-9.003-15.936-15.381-22.741 c-5.184-5.483-11.008-11.712-11.008-15.893c0-4.224,5.824-10.453,11.008-15.936c6.379-6.805,12.971-13.824,15.381-22.741 c2.453-9.216,0.235-18.837-1.92-28.117c-1.579-6.827-3.52-15.253-1.643-18.539c2.005-3.435,10.048-5.867,17.173-8.021 c9.067-2.731,18.432-5.568,25.109-12.224c6.656-6.656,9.472-16.021,12.224-25.067c2.133-7.104,4.565-15.168,8-17.152 c2.88-1.621,10.667-0.171,18.517,1.643c9.387,2.176,19.84,4.139,28.117,1.92c8.917-2.389,15.957-8.981,22.763-15.381 c5.483-5.163,11.712-11.008,15.936-11.008c4.203,0,10.432,5.845,15.936,11.008c6.784,6.379,13.824,12.992,22.741,15.381 c8.277,2.219,18.731,0.256,28.096-1.92c7.872-1.813,15.723-3.264,18.56-1.621c3.435,1.984,5.867,10.027,8.021,17.131 c2.731,9.067,5.568,18.432,12.224,25.088s16.021,9.493,25.088,12.224c7.083,2.155,15.125,4.587,17.131,8 c1.899,3.307-0.064,11.755-1.643,18.56c-2.155,9.301-4.373,18.901-1.92,28.139c2.389,8.896,9.003,15.936,15.381,22.741 c5.163,5.483,11.029,11.712,11.029,15.936s-5.845,10.432-11.029,15.936c-6.379,6.805-12.971,13.824-15.381,22.741 c-2.453,9.216-0.235,18.837,1.92,28.117c1.579,6.805,3.541,15.253,1.643,18.539c-2.005,3.435-10.048,5.867-17.173,8.021 c-9.067,2.731-18.411,5.568-25.088,12.224C354.891,304.277,352.075,313.643,349.344,322.688z"/> </g> </g> </g> </g>
</svg>