<svg width="14" height="18" viewBox="0 0 14 18" fill="none" xmlns="http://www.w3.org/2000/svg">
<path d="M0.27 0.0750008C0.2025 0.116251 0.11625 0.202501 0.075 0.27C0 0.393751 0 0.48 0 9C0 17.52 0 17.6063 0.075 17.73C0.1875 17.9138 0.35625 18 0.60375 18C0.76125 18 0.8475 17.9775 0.945 17.9138C1.01625 17.865 2.3025 16.8375 3.81 15.6337C5.31375 14.43 6.57 13.4475 6.6 13.4475C6.63 13.4475 7.88625 14.43 9.39 15.6337C10.8975 16.8375 12.1838 17.865 12.255 17.9138C12.3525 17.9775 12.4388 18 12.5963 18C12.8438 18 13.0125 17.9138 13.125 17.73C13.2 17.6063 13.2 17.52 13.2 9C13.2 0.48 13.2 0.393751 13.125 0.27C13.0838 0.202501 12.9975 0.116251 12.93 0.0750008C12.8063 0 12.7275 0 6.6 0C0.4725 0 0.39375 0 0.27 0.0750008Z" fill="#9707B5"/>
</svg>
