<svg width="14" height="18" viewBox="0 0 14 18" fill="none" xmlns="http://www.w3.org/2000/svg">
<path d="M0.536724 0.0750008C0.469224 0.116251 0.382974 0.202501 0.341724 0.27C0.266724 0.393751 0.266724 0.48 0.266724 9C0.266724 17.52 0.266724 17.6063 0.341724 17.73C0.454224 17.9138 0.622974 18 0.870474 18C1.02797 18 1.11422 17.9775 1.21172 17.9138C1.28297 17.865 2.56922 16.8375 4.07672 15.6337C5.58047 14.43 6.83672 13.4475 6.86672 13.4475C6.89672 13.4475 8.15297 14.43 9.65672 15.6337C11.1642 16.8375 12.4505 17.865 12.5217 17.9138C12.6192 17.9775 12.7055 18 12.863 18C13.1105 18 13.2792 17.9138 13.3917 17.73C13.4667 17.6063 13.4667 17.52 13.4667 9C13.4667 0.48 13.4667 0.393751 13.3917 0.27C13.3505 0.202501 13.2642 0.116251 13.1967 0.0750008C13.073 0 12.9942 0 6.86672 0C0.739224 0 0.660474 0 0.536724 0.0750008ZM12.2667 8.64375C12.2667 12.7387 12.2592 16.0875 12.248 16.0875C12.2367 16.0875 11.1305 15.2062 9.78422 14.13C8.44172 13.0575 7.28297 12.135 7.21172 12.0863C7.02797 11.9662 6.70547 11.9662 6.52172 12.0863C6.45047 12.135 5.29172 13.0575 3.94922 14.13C2.60297 15.2062 1.49672 16.0875 1.48547 16.0875C1.47422 16.0875 1.46672 12.7387 1.46672 8.64375V1.2H6.86672H12.2667V8.64375Z" fill="#FCFDFC"/>
</svg>
