<svg width="12" height="12" viewBox="0 0 12 12" fill="none" xmlns="http://www.w3.org/2000/svg">
<g clip-path="url(#clip0_169_2255)">
<path d="M5.94141 0.0352774C6.95156 0.178246 7.88203 0.590746 8.64844 1.23528C9.47344 1.92903 10.0781 2.90168 10.3477 3.96106C10.4672 4.43215 10.4859 4.61262 10.4859 5.25012C10.4859 5.88528 10.4695 6.04934 10.3453 6.54153C10.2094 7.08528 9.91172 7.75793 9.62344 8.16809L9.47578 8.37903L10.6758 9.58606C11.4773 10.3923 11.8969 10.8282 11.932 10.8986C11.9789 10.9876 11.9883 11.0392 11.9883 11.2384C11.9883 11.5103 11.9461 11.6275 11.7867 11.7868C11.6297 11.9439 11.5102 11.9884 11.2477 11.9884C10.8891 11.9884 10.9406 12.0282 9.56484 10.6689L8.37187 9.49231L8.13984 9.64465C7.48828 10.0806 6.63281 10.3876 5.81719 10.4767C5.44219 10.5189 4.70859 10.4954 4.34766 10.4322C2.43516 10.0923 0.864843 8.74465 0.2625 6.9259C0.0749998 6.36575 0 5.88528 0 5.25012C0 4.40637 0.154687 3.71028 0.501562 2.9884C1.24922 1.4345 2.64375 0.372778 4.34766 0.0680904C4.71328 0.00246525 5.58281 -0.0162849 5.94141 0.0352774ZM4.45312 1.6009C4.12031 1.68059 3.94922 1.73918 3.64219 1.88684C2.86875 2.25247 2.25703 2.86418 1.88672 3.63997C1.59375 4.24934 1.48594 4.81887 1.52812 5.51262C1.60547 6.82981 2.43047 8.03918 3.64219 8.6134C4.17891 8.86887 4.53047 8.95325 5.13281 8.96965C5.50312 8.98137 5.60859 8.97434 5.85234 8.9345C7.20703 8.70247 8.32734 7.75793 8.775 6.47122C8.93203 6.02122 8.9625 5.81731 8.9625 5.25012C8.9625 4.81653 8.95547 4.7134 8.91094 4.5095C8.58047 2.99075 7.40391 1.84465 5.89219 1.57043C5.51719 1.50247 4.80469 1.51653 4.45312 1.6009Z" fill="#FCFDFC"/>
</g>
<defs>
<clipPath id="clip0_169_2255">
<rect width="12" height="12" fill="white" transform="matrix(-1 0 0 1 12 0)"/>
</clipPath>
</defs>
</svg>
