<svg width="18" height="18" viewBox="0 0 18 18" fill="none" xmlns="http://www.w3.org/2000/svg">
<path d="M9.08789 0.0526714C7.57266 0.267126 6.17695 0.885876 5.02734 1.85267C3.78984 2.8933 2.88281 4.35228 2.47852 5.94134C2.29922 6.64798 2.27109 6.91869 2.27109 7.87494C2.27109 8.82767 2.2957 9.07377 2.48203 9.81205C2.68594 10.6277 3.13242 11.6367 3.56484 12.2519L3.78633 12.5683L1.98633 14.3788C0.783984 15.5882 0.154687 16.2421 0.101953 16.3476C0.0316406 16.4812 0.0175781 16.5585 0.0175781 16.8574C0.0175781 17.2652 0.0808594 17.441 0.319922 17.68C0.555469 17.9156 0.734766 17.9824 1.12852 17.9824C1.66641 17.9824 1.58906 18.0421 3.65273 16.0031L5.44219 14.2382L5.79023 14.4667C6.76758 15.1206 8.05078 15.5812 9.27422 15.7148C9.83672 15.7781 10.9371 15.7429 11.4785 15.648C14.3473 15.1382 16.7027 13.1167 17.6062 10.3886C17.8875 9.54838 18 8.82767 18 7.87494C18 6.60931 17.768 5.56517 17.2477 4.48236C16.1262 2.1515 14.0344 0.558922 11.4785 0.101891C10.9301 0.00345421 9.62578 -0.0246716 9.08789 0.0526714ZM11.3203 2.40111C11.8195 2.52064 12.0762 2.60853 12.5367 2.83002C13.6969 3.37845 14.6145 4.29603 15.1699 5.4597C15.6094 6.37377 15.7711 7.22806 15.7078 8.26869C15.5918 10.2445 14.3543 12.0585 12.5367 12.9199C11.7316 13.3031 11.2043 13.4296 10.3008 13.4542C9.74531 13.4718 9.58711 13.4613 9.22148 13.4015C7.18945 13.0535 5.50898 11.6367 4.8375 9.70658C4.60195 9.03158 4.55625 8.72572 4.55625 7.87494C4.55625 7.22455 4.5668 7.06986 4.63359 6.764C5.1293 4.48588 6.89414 2.76674 9.16172 2.35541C9.72422 2.25345 10.793 2.27455 11.3203 2.40111Z" fill="#777E91"/>
</svg>
