<svg width="16" height="18" viewBox="0 0 16 18" fill="none" xmlns="http://www.w3.org/2000/svg">
<path d="M13.4167 17.3334C12.7222 17.3334 12.1319 17.0904 11.6458 16.6042C11.1597 16.1181 10.9167 15.5279 10.9167 14.8334C10.9167 14.7501 10.9375 14.5556 10.9792 14.2501L5.12501 10.8334C4.90278 11.0417 4.64584 11.2049 4.35417 11.323C4.06251 11.4411 3.75001 11.5001 3.41667 11.5001C2.72223 11.5001 2.13195 11.257 1.64584 10.7709C1.15973 10.2848 0.916672 9.69453 0.916672 9.00008C0.916672 8.30564 1.15973 7.71536 1.64584 7.22925C2.13195 6.74314 2.72223 6.50008 3.41667 6.50008C3.75001 6.50008 4.06251 6.55911 4.35417 6.67717C4.64584 6.79522 4.90278 6.95842 5.12501 7.16675L10.9792 3.75008C10.9514 3.65286 10.934 3.55911 10.9271 3.46883C10.9201 3.37855 10.9167 3.27786 10.9167 3.16675C10.9167 2.4723 11.1597 1.88203 11.6458 1.39591C12.1319 0.909804 12.7222 0.666748 13.4167 0.666748C14.1111 0.666748 14.7014 0.909804 15.1875 1.39591C15.6736 1.88203 15.9167 2.4723 15.9167 3.16675C15.9167 3.86119 15.6736 4.45147 15.1875 4.93758C14.7014 5.42369 14.1111 5.66675 13.4167 5.66675C13.0833 5.66675 12.7708 5.60772 12.4792 5.48966C12.1875 5.37161 11.9306 5.20842 11.7083 5.00008L5.85417 8.41675C5.88195 8.51397 5.89931 8.60772 5.90626 8.698C5.9132 8.78828 5.91667 8.88897 5.91667 9.00008C5.91667 9.11119 5.9132 9.21189 5.90626 9.30217C5.89931 9.39244 5.88195 9.48619 5.85417 9.58341L11.7083 13.0001C11.9306 12.7917 12.1875 12.6286 12.4792 12.5105C12.7708 12.3924 13.0833 12.3334 13.4167 12.3334C14.1111 12.3334 14.7014 12.5765 15.1875 13.0626C15.6736 13.5487 15.9167 14.139 15.9167 14.8334C15.9167 15.5279 15.6736 16.1181 15.1875 16.6042C14.7014 17.0904 14.1111 17.3334 13.4167 17.3334Z" fill="#FCFDFC"/>
</svg>
