<svg width="41" height="42" viewBox="0 0 41 42" fill="none" xmlns="http://www.w3.org/2000/svg">
<g clip-path="url(#clip0_245_2266)">
<path d="M19.9411 1.09871C19.7893 1.17857 19.2143 1.59385 18.6633 2.0251C16.9622 3.36676 15.389 4.34906 13.7917 5.06781C11.4039 6.14593 8.22543 6.86468 5.85355 6.86468C4.97508 6.86468 4.51189 7.04836 4.24835 7.50357C4.08862 7.78308 4.08862 7.89489 4.08862 16.0088C4.08862 24.9852 4.08862 25.0011 4.56779 26.8779C5.46223 30.3997 7.69036 33.5782 10.7011 35.6067C11.5796 36.1977 19.5338 40.8216 19.9171 40.9574C20.1886 41.0612 20.3164 41.0612 20.5959 40.9893C20.9952 40.8855 29.189 36.2536 30.323 35.4949C33.4775 33.3866 35.7615 29.9525 36.6161 26.0313L36.8157 25.1129L36.8796 16.8473C36.9115 12.3032 36.9195 8.38204 36.8956 8.14246C36.8397 7.60739 36.6799 7.30392 36.3206 7.08031C36.089 6.93656 35.8654 6.90461 34.7633 6.85669C32.9105 6.76885 31.5289 6.53725 29.8838 6.0501C27.0567 5.21156 25.0122 4.12545 22.3768 2.06503C21.8817 1.67371 21.3386 1.26642 21.1709 1.15461C20.8195 0.915028 20.3404 0.891071 19.9411 1.09871ZM21.4025 4.46086C25.0761 7.24801 28.7737 8.74142 33.2619 9.23656L34.4758 9.37232V16.2004C34.4758 19.9619 34.4358 23.4598 34.3959 23.9709C34.0765 27.8282 32.048 31.3421 28.9254 33.4345C28.3025 33.8498 20.4362 38.33 20.3324 38.33C20.1726 38.33 12.2424 33.6661 11.6275 33.2109C9.02404 31.2782 7.20321 28.2275 6.68411 24.9053C6.5723 24.2185 6.46848 11.5286 6.56432 10.1789L6.62022 9.34836L7.1473 9.30044C10.3977 8.98898 12.9931 8.26225 15.8202 6.84871C16.9862 6.27371 18.7591 5.13968 19.7813 4.31711C20.1088 4.05357 20.4282 3.83794 20.4761 3.83794C20.532 3.82996 20.9473 4.10947 21.4025 4.46086Z" fill="#FF6838"/>
<path d="M19.893 12.6065C19.7572 12.6864 19.5655 12.8541 19.4697 12.9739L19.302 13.1975L19.318 19.0194L19.3419 24.8413L19.6773 25.1607C19.9808 25.4402 20.0607 25.4722 20.4201 25.4722C20.8992 25.4722 21.1947 25.3364 21.4902 24.985L21.6978 24.7374L21.6819 18.9076L21.6579 13.0857L21.3225 12.7663C21.019 12.4868 20.9471 12.4548 20.5638 12.4548C20.2923 12.4548 20.0527 12.5107 19.893 12.6065Z" fill="#FF6838"/>
<path d="M19.9409 26.5823C19.7892 26.6622 19.5815 26.8459 19.4857 26.9896C19.326 27.2212 19.302 27.357 19.302 28.0198C19.302 28.6347 19.3339 28.8344 19.4537 29.0181C19.6853 29.3695 20.0128 29.5452 20.444 29.5452C20.8992 29.5452 21.2027 29.4014 21.4902 29.066C21.6819 28.8344 21.6978 28.7625 21.6978 28.0358C21.6978 27.357 21.6739 27.2212 21.5142 26.9816C21.1708 26.4625 20.4839 26.2868 19.9409 26.5823Z" fill="#FF6838"/>
</g>
<defs>
<clipPath id="clip0_245_2266">
<rect width="40.8889" height="40.8889" fill="white" transform="translate(0.0556641 0.555542)"/>
</clipPath>
</defs>
</svg>
