<svg width="44" height="44" viewBox="0 0 44 44" fill="none" xmlns="http://www.w3.org/2000/svg">
<rect x="1.48718" y="1.48718" width="41.0256" height="41.0256" rx="20.5128" stroke="#12151E" stroke-width="1.02564"/>
<circle cx="22" cy="22" r="20" fill="black"/>
<g clip-path="url(#clip0_236_681)">
<path d="M31.897 27.3198L28.5954 30.8076C28.5236 30.8833 28.4368 30.9437 28.3403 30.985C28.2438 31.0263 28.1397 31.0476 28.0345 31.0475H12.3833C12.3086 31.0475 12.2356 31.026 12.1731 30.9857C12.1107 30.9453 12.0615 30.8879 12.0318 30.8204C12.002 30.753 11.9929 30.6784 12.0056 30.6059C12.0182 30.5334 12.0521 30.4662 12.1031 30.4124L15.4071 26.9247C15.4787 26.8491 15.5653 26.7888 15.6615 26.7475C15.7577 26.7063 15.8614 26.6849 15.9664 26.6847H31.6167C31.6914 26.6847 31.7644 26.7062 31.8269 26.7465C31.8893 26.7869 31.9384 26.8443 31.9683 26.9118C31.998 26.9792 32.0071 27.0538 31.9945 27.1263C31.9818 27.1988 31.9479 27.266 31.897 27.3198ZM28.5954 20.2965C28.5236 20.2208 28.4368 20.1604 28.3403 20.1191C28.2438 20.0778 28.1397 20.0565 28.0345 20.0566H12.3833C12.3086 20.0566 12.2356 20.0781 12.1731 20.1184C12.1107 20.1588 12.0615 20.2162 12.0318 20.2836C12.002 20.3511 11.9929 20.4257 12.0056 20.4982C12.0182 20.5706 12.0521 20.6379 12.1031 20.6917L15.4071 24.1794C15.4787 24.255 15.5653 24.3153 15.6615 24.3566C15.7577 24.3978 15.8614 24.4192 15.9664 24.4194H31.6167C31.6914 24.4194 31.7644 24.3979 31.8269 24.3576C31.8893 24.3172 31.9384 24.2598 31.9683 24.1923C31.998 24.1249 32.0071 24.0503 31.9945 23.9778C31.9818 23.9053 31.9479 23.8381 31.897 23.7843L28.5954 20.2965ZM12.3833 17.7913H28.0345C28.1397 17.7913 28.2438 17.7701 28.3403 17.7288C28.4368 17.6875 28.5236 17.6271 28.5954 17.5513L31.897 14.0636C31.9479 14.0098 31.9818 13.9425 31.9945 13.87C32.0071 13.7975 31.998 13.723 31.9683 13.6555C31.9384 13.5881 31.8893 13.5306 31.8269 13.4903C31.7644 13.45 31.6914 13.4285 31.6167 13.4285H15.9664C15.8614 13.4286 15.7577 13.45 15.6615 13.4913C15.5653 13.5326 15.4787 13.5929 15.4071 13.6684L12.1039 17.1562C12.053 17.2099 12.0191 17.2771 12.0064 17.3495C11.9937 17.4219 12.0028 17.4964 12.0324 17.5638C12.0621 17.6313 12.1111 17.6887 12.1734 17.7291C12.2357 17.7695 12.3087 17.7911 12.3833 17.7913Z" fill="url(#paint0_linear_236_681)"/>
</g>
<defs>
<linearGradient id="paint0_linear_236_681" x1="13.6882" y1="31.4674" x2="29.824" y2="13.0007" gradientUnits="userSpaceOnUse">
<stop offset="0.08" stop-color="#9945FF"/>
<stop offset="0.3" stop-color="#8752F3"/>
<stop offset="0.5" stop-color="#5497D5"/>
<stop offset="0.6" stop-color="#43B4CA"/>
<stop offset="0.72" stop-color="#28E0B9"/>
<stop offset="0.97" stop-color="#19FB9B"/>
</linearGradient>
<clipPath id="clip0_236_681">
<rect width="20" height="17.619" fill="white" transform="translate(12 13.4285)"/>
</clipPath>
</defs>
</svg>
