<svg width="13" height="11" viewBox="0 0 13 11" fill="none" xmlns="http://www.w3.org/2000/svg">
<path d="M0.596619 3.36968C0.733495 3.6329 0.947584 3.76276 1.2459 3.76627C1.55475 3.76627 1.66706 3.69608 2.23562 3.124L2.72697 2.62914L2.74452 5.67201C2.76207 8.70434 2.76207 8.71838 2.83928 8.94651C3.15164 9.85902 3.99045 10.4943 4.90296 10.5048C5.18022 10.5083 5.23988 10.4978 5.37676 10.4206C5.61892 10.2837 5.74176 10.0836 5.7558 9.79233C5.76633 9.60281 5.7558 9.5256 5.69965 9.4168C5.56628 9.1606 5.30306 8.9816 5.05387 8.9816C4.75204 8.9816 4.47478 8.80612 4.35545 8.5429C4.29228 8.40953 4.28877 8.20246 4.28877 4.55594C4.28877 0.319796 4.29579 0.47773 4.07117 0.246093C3.92025 0.0916681 3.7904 0.0284948 3.5728 0.00743675C3.21833 -0.0276594 3.16919 0.00743675 1.80745 1.3762C0.772101 2.41856 0.575562 2.63265 0.540465 2.75549C0.473782 2.99064 0.48782 3.16612 0.596619 3.36968Z" fill="#FCFDFC"/>
<path d="M7.29986 1.10586C7.4227 1.36557 7.70698 1.53755 8.00881 1.54106C8.258 1.54457 8.57387 1.76567 8.68266 2.01486C8.71776 2.09909 8.7318 2.92035 8.74584 6.0685C8.7669 10.4661 8.74233 10.1116 9.00555 10.3433C9.20209 10.5152 9.4583 10.5644 9.74258 10.4836C9.86542 10.4485 10.0795 10.252 11.1254 9.21314C11.9291 8.41295 12.3889 7.93212 12.431 7.83736C12.6029 7.48289 12.4415 7.02663 12.0765 6.83711C11.9115 6.75639 11.6062 6.74937 11.4202 6.82308C11.343 6.85817 11.0868 7.07928 10.7709 7.39515L10.255 7.91107V4.96296C10.255 1.70601 10.255 1.75164 10.0304 1.28485C9.67239 0.540808 8.89324 0.0354185 8.07901 0.0178699C7.73155 0.0143604 7.51395 0.11614 7.35953 0.361815C7.22616 0.579413 7.20159 0.891772 7.29986 1.10586Z" fill="#FCFDFC"/>
</svg>
