<svg width="24" height="24" viewBox="0 0 24 24" fill="none" xmlns="http://www.w3.org/2000/svg">
<path d="M11.6865 6.17933C11.473 6.24857 11.2711 6.37839 11.1095 6.55147C10.847 6.8313 10.7403 7.11112 10.7403 7.50922C10.7403 7.90732 10.847 8.18715 11.1095 8.46697C11.3836 8.75834 11.7038 8.89392 12.125 8.89392C12.5462 8.89392 12.8664 8.75834 13.1404 8.46697C13.403 8.18715 13.5097 7.90732 13.5097 7.50922C13.5097 7.11112 13.403 6.8313 13.1404 6.55147C12.976 6.3755 12.7741 6.24857 12.5548 6.17933C12.3212 6.10722 11.9144 6.10722 11.6865 6.17933Z" fill="#FCFDFC"/>
<path d="M11.6865 10.7951C11.473 10.8643 11.2711 10.9941 11.1095 11.1672C10.847 11.447 10.7403 11.7268 10.7403 12.1249C10.7403 12.523 10.847 12.8029 11.1095 13.0827C11.3836 13.3741 11.7038 13.5096 12.125 13.5096C12.5462 13.5096 12.8664 13.3741 13.1404 13.0827C13.403 12.8029 13.5097 12.523 13.5097 12.1249C13.5097 11.7268 13.403 11.447 13.1404 11.1672C12.976 10.9912 12.7741 10.8643 12.5548 10.7951C12.3212 10.7229 11.9144 10.7229 11.6865 10.7951Z" fill="#FCFDFC"/>
<path d="M11.6865 15.4107C11.473 15.4799 11.2711 15.6097 11.1095 15.7828C10.847 16.0626 10.7403 16.3424 10.7403 16.7405C10.7403 17.1386 10.847 17.4185 11.1095 17.6983C11.3836 17.9897 11.7038 18.1252 12.125 18.1252C12.5462 18.1252 12.8664 17.9897 13.1404 17.6983C13.403 17.4185 13.5097 17.1386 13.5097 16.7405C13.5097 16.3424 13.403 16.0626 13.1404 15.7828C12.976 15.6068 12.7741 15.4799 12.5548 15.4107C12.3212 15.3385 11.9144 15.3385 11.6865 15.4107Z" fill="#FCFDFC"/>
</svg>
