<?xml version="1.0" standalone="no"?>
<svg fill="#000000" version="1.1" id="Layer_1" xmlns="http://www.w3.org/2000/svg" xmlns:xlink="http://www.w3.org/1999/xlink" width="128" height="128" viewBox="0 0 260 260" xml:space="preserve">
<path d="M130,2C59.3,2,2,59.3,2,130s57.3,128,128,128s128-57.3,128-128S200.7,2,130,2z M188.3,49.7l5.7,12.8l-37.3,16.8L151,66.5&#10;&#9;L188.3,49.7z M60.9,67.5h42.3v14H60.9V67.5z M85.2,138.7c-12.2,0-22-9.8-22-22s9.8-22,22-22s22,9.8,22,22S97.3,138.7,85.2,138.7z&#10;&#9; M122.7,218.5l-9-20.1l64.7-29l9,20.1L122.7,218.5z M177.1,138.7c-12.2,0-22-9.8-22-22s9.8-22,22-22s22,9.8,22,22&#10;&#9;S189.2,138.7,177.1,138.7z" style="fill: rgb(43, 255, 0);"/>
</svg>