<svg width="21" height="18" viewBox="0 0 21 18" fill="none" xmlns="http://www.w3.org/2000/svg">
<path d="M2.59339 0.0831833C1.84618 0.299246 1.17549 0.839401 0.828885 1.50559C0.477784 2.18979 0.500291 1.64063 0.500291 9.00025C0.500291 16.3599 0.477784 15.8107 0.828885 16.4949C1.08096 16.9856 1.52209 17.4222 2.01273 17.6788C2.69242 18.0299 2.00372 18.0073 11.1774 17.9938L19.3832 17.9803L19.6533 17.8498C19.9999 17.6788 20.342 17.3367 20.5131 16.9901L20.6436 16.72L20.6571 15.5631L20.6706 14.4108L18.654 14.3928C16.3404 14.3703 16.2638 14.3613 15.5121 13.9967C15.0125 13.7536 14.6434 13.47 14.3103 13.0694C14.0312 12.7363 13.6711 12.0026 13.5811 11.5795C13.5405 11.3994 13.509 11.0528 13.509 10.8008C13.509 10.2021 13.6036 9.79698 13.8691 9.24782C14.2473 8.4736 14.7379 7.98296 15.5121 7.60485C16.2638 7.24024 16.3404 7.23124 18.654 7.20874L20.6706 7.19073L20.6571 6.0384L20.6436 4.88157L20.5131 4.61149C20.342 4.26489 19.9999 3.92279 19.6533 3.75174L19.3832 3.6212L11.3034 3.5987C3.25508 3.57619 3.22358 3.57619 3.06603 3.48166C2.83646 3.34662 2.70593 3.13056 2.70593 2.87849C2.70593 2.62642 2.83646 2.41035 3.06603 2.27531C3.22358 2.18079 3.26409 2.18079 10.1556 2.15828C17.8528 2.13127 17.1866 2.16278 17.5017 1.83419C17.6997 1.62713 17.7853 1.39756 17.7853 1.06897C17.7853 0.73587 17.6817 0.4883 17.4657 0.28124C17.1416 -0.0248489 17.7132 -0.00234222 9.9215 0.00215912C3.37212 0.00215912 2.84547 0.0111618 2.59339 0.0831833Z" fill="#9707B5"/>
<path d="M16.3808 8.72571C15.7281 8.93727 15.17 9.50893 14.9764 10.1661C14.8819 10.4857 14.8819 11.1159 14.9764 11.4355C15.17 12.1017 15.7326 12.6688 16.3943 12.8759C16.6464 12.9524 16.8309 12.9614 18.6675 12.9614H20.6661V10.8008V8.64018L18.654 8.64468C16.8264 8.64468 16.6149 8.65369 16.3808 8.72571Z" fill="#9707B5"/>
</svg>
